<svg width="28" height="32" viewBox="0 0 28 32" fill="none" xmlns="http://www.w3.org/2000/svg">
<path d="M17.8024 9.76833L1.01886 0.123178C0.807965 4.82537e-05 0.542639 0.00688879 0.338543 0.130018C0.127644 0.253148 -0.00161743 0.472045 -0.00161743 0.718304C-0.00161743 0.718304 0.00518578 1.60757 0.011989 3.07145L12.2374 15.3639L17.8024 9.76833Z" fill="url(#paint0_linear_1160_860)"/>
<path d="M0.0119629 3.07153C0.0323725 8.35243 0.0936013 21.1716 0.120814 27.5538L12.2441 15.364L0.0119629 3.07153Z" fill="url(#paint1_linear_1160_860)"/>
<path d="M27.4085 15.2886L17.8024 9.76831L12.2305 15.3639L18.5167 21.6845L27.4153 16.472C27.6262 16.3489 27.7555 16.1232 27.7555 15.8838C27.7555 15.6375 27.6194 15.4118 27.4085 15.2886Z" fill="url(#paint2_linear_1160_860)"/>
<path d="M0.114044 27.5536C0.127651 29.8315 0.134454 31.2885 0.134454 31.2885C0.134454 31.5348 0.263715 31.7605 0.474614 31.8768C0.685513 31.9999 0.944034 31.9999 1.15493 31.8768L18.5235 21.6913L12.2373 15.3706L0.114044 27.5536Z" fill="url(#paint3_linear_1160_860)"/>
<defs>
<linearGradient id="paint0_linear_1160_860" x1="-0.00161743" y1="7.70208" x2="17.8055" y2="7.70208" gradientUnits="userSpaceOnUse">
<stop stop-color="#63BE6B"/>
<stop offset="0.506" stop-color="#5BBC6A"/>
<stop offset="1" stop-color="#4AB96A"/>
</linearGradient>
<linearGradient id="paint1_linear_1160_860" x1="0.00869735" y1="15.3156" x2="12.237" y2="15.3156" gradientUnits="userSpaceOnUse">
<stop stop-color="#3EC6F2"/>
<stop offset="1" stop-color="#45AFE3"/>
</linearGradient>
<linearGradient id="paint2_linear_1160_860" x1="12.2371" y1="15.7308" x2="27.7538" y2="15.7308" gradientUnits="userSpaceOnUse">
<stop stop-color="#FAA51A"/>
<stop offset="0.387" stop-color="#FAB716"/>
<stop offset="0.741" stop-color="#FAC412"/>
<stop offset="1" stop-color="#FAC80F"/>
</linearGradient>
<linearGradient id="paint3_linear_1160_860" x1="0.117038" y1="23.6696" x2="18.5232" y2="23.6696" gradientUnits="userSpaceOnUse">
<stop stop-color="#EC3B50"/>
<stop offset="1" stop-color="#E7515B"/>
</linearGradient>
</defs>
</svg>
