<svg width="32" height="32" viewBox="0 0 32 32" fill="none" xmlns="http://www.w3.org/2000/svg">
<path opacity="0.2" d="M5.27935 5.37337C5.13031 5.32991 4.9732 5.32173 4.82046 5.3495C4.66772 5.37728 4.52354 5.44023 4.39935 5.53337C4.27515 5.62652 4.17435 5.74731 4.10492 5.88616C4.03549 6.02502 3.99935 6.17813 3.99935 6.33337V23.6667C3.99935 23.822 4.03549 23.9751 4.10492 24.1139C4.17435 24.2528 4.27515 24.3736 4.39935 24.4667C4.52354 24.5599 4.66772 24.6228 4.82046 24.6506C4.9732 24.6783 5.13031 24.6702 5.27935 24.6267L17.0001 21.2082V8.79192L5.27935 5.37337Z" fill="#564FFD"/>
<path d="M3.99935 6.33337V23.6667C3.99935 23.822 4.03549 23.9751 4.10492 24.1139C4.17435 24.2528 4.27515 24.3736 4.39935 24.4667C4.52354 24.5599 4.66772 24.6228 4.82046 24.6506C4.9732 24.6783 5.13031 24.6702 5.27935 24.6267L27.2793 18.21C27.4871 18.1495 27.6695 18.0231 27.7993 17.85C27.9292 17.6769 27.9993 17.4664 27.9993 17.25V12.75C27.9993 12.5337 27.9292 12.3231 27.7993 12.15C27.6695 11.9769 27.4871 11.8506 27.2793 11.79L5.27935 5.37337C5.13031 5.32991 4.9732 5.32173 4.82046 5.3495C4.66772 5.37728 4.52354 5.44023 4.39935 5.53337C4.27515 5.62652 4.17435 5.74731 4.10492 5.88616C4.03549 6.02502 3.99935 6.17813 3.99935 6.33337V6.33337Z" stroke="#564FFD" stroke-width="2" stroke-linecap="round" stroke-linejoin="round"/>
<path d="M23 19.4581V24C23 24.2652 22.8946 24.5196 22.7071 24.7071C22.5196 24.8946 22.2652 25 22 25H18C17.7348 25 17.4804 24.8946 17.2929 24.7071C17.1054 24.5196 17 24.2652 17 24V8.79187" stroke="#564FFD" stroke-width="2" stroke-linecap="round" stroke-linejoin="round"/>
</svg>
