<svg width="48" height="48" viewBox="0 0 48 48" fill="none" xmlns="http://www.w3.org/2000/svg">
<path d="M37.4995 42H10.498C10.1002 42 9.71869 41.842 9.43739 41.5607C9.15608 41.2794 8.99805 40.8978 8.99805 40.5V7.5C8.99805 7.10218 9.15608 6.72064 9.43739 6.43934C9.71869 6.15804 10.1002 6 10.498 6H28.4995L38.9995 16.5V40.5C38.9995 40.697 38.9607 40.892 38.8853 41.074C38.81 41.256 38.6995 41.4214 38.5602 41.5607C38.4209 41.7 38.2555 41.8104 38.0735 41.8858C37.8915 41.9612 37.6965 42 37.4995 42Z" stroke="#FF6636" stroke-width="2.5" stroke-linecap="round" stroke-linejoin="round"/>
<path d="M28.5 6V16.5H39.0015" stroke="#FF6636" stroke-width="2.5" stroke-linecap="round" stroke-linejoin="round"/>
<path d="M18 25.5H30" stroke="#FF6636" stroke-width="2.5" stroke-linecap="round" stroke-linejoin="round"/>
<path d="M18 31.5H30" stroke="#FF6636" stroke-width="2.5" stroke-linecap="round" stroke-linejoin="round"/>
</svg>
