<svg width="11" height="12" viewBox="0 0 11 12" fill="none" xmlns="http://www.w3.org/2000/svg">
<path d="M10.5923 5.57338L1.59374 0.0740952C1.51795 0.0277753 1.43118 0.00248319 1.34237 0.000820088C1.25356 -0.000843012 1.16591 0.0211831 1.08843 0.0646328C1.01096 0.108083 0.946457 0.171387 0.901564 0.248034C0.856671 0.324682 0.833008 0.411905 0.833008 0.500732V11.4993C0.833008 11.5881 0.856671 11.6754 0.901564 11.752C0.946457 11.8287 1.01096 11.892 1.08843 11.9354C1.16591 11.9789 1.25356 12.0009 1.34237 11.9992C1.43118 11.9976 1.51795 11.9723 1.59374 11.9259L10.5923 6.42666C10.6654 6.38199 10.7257 6.3193 10.7676 6.2446C10.8095 6.16989 10.8315 6.08567 10.8315 6.00002C10.8315 5.91437 10.8095 5.83015 10.7676 5.75545C10.7257 5.68074 10.6654 5.61805 10.5923 5.57338Z" fill="#1D2026"/>
</svg>
