<svg width="20" height="20" viewBox="0 0 20 20" fill="none" xmlns="http://www.w3.org/2000/svg">
<path d="M6.875 12.5C9.11866 12.5 10.9375 10.6812 10.9375 8.4375C10.9375 6.19384 9.11866 4.375 6.875 4.375C4.63134 4.375 2.8125 6.19384 2.8125 8.4375C2.8125 10.6812 4.63134 12.5 6.875 12.5Z" stroke="#564FFD" stroke-width="1.5" stroke-miterlimit="10"/>
<path d="M12.1416 4.52634C12.7004 4.36891 13.2864 4.33305 13.8602 4.42117C14.434 4.50929 14.9822 4.71934 15.468 5.03719C15.9538 5.35503 16.3658 5.77329 16.6763 6.26378C16.9868 6.75427 17.1886 7.30561 17.2681 7.88066C17.3476 8.45571 17.303 9.04112 17.1372 9.59746C16.9714 10.1538 16.6883 10.6682 16.307 11.1059C15.9256 11.5436 15.4549 11.8945 14.9266 12.135C14.3982 12.3755 13.8244 12.4999 13.2439 12.5" stroke="#564FFD" stroke-width="1.5" stroke-linecap="round" stroke-linejoin="round"/>
<path d="M1.25 15.4216C1.88448 14.5191 2.72679 13.7825 3.70582 13.274C4.68485 12.7655 5.77186 12.5 6.87507 12.5C7.97828 12.5 9.0653 12.7654 10.0444 13.2738C11.0234 13.7822 11.8658 14.5187 12.5004 15.4212" stroke="#564FFD" stroke-width="1.5" stroke-linecap="round" stroke-linejoin="round"/>
<path d="M13.2441 12.5C14.3475 12.4992 15.4347 12.7643 16.4139 13.2728C17.393 13.7813 18.2352 14.5182 18.8692 15.4212" stroke="#564FFD" stroke-width="1.5" stroke-linecap="round" stroke-linejoin="round"/>
</svg>
