<svg width="82" height="22" viewBox="0 0 82 22" fill="none" xmlns="http://www.w3.org/2000/svg">
<path d="M10 18.5C14.1421 18.5 17.5 15.1421 17.5 11C17.5 6.85786 14.1421 3.5 10 3.5C5.85786 3.5 2.5 6.85786 2.5 11C2.5 15.1421 5.85786 18.5 10 18.5Z" stroke="#FD8E1F" stroke-width="1.3" stroke-miterlimit="10"/>
<path d="M10 6.625V11H14.375" stroke="#FD8E1F" stroke-width="1.3" stroke-linecap="round" stroke-linejoin="round"/>
<path d="M30.6335 5.81818V16H29.4006V7.1108H29.3409L26.8551 8.76136V7.50852L29.4006 5.81818H30.6335ZM36.6633 5.67898C37.0809 5.68229 37.4985 5.76184 37.9161 5.91761C38.3337 6.07339 38.7149 6.33191 39.0596 6.69318C39.4043 7.05114 39.681 7.54001 39.8898 8.1598C40.0986 8.77959 40.203 9.55682 40.203 10.4915C40.203 11.3963 40.1169 12.2 39.9445 12.9027C39.7755 13.602 39.5302 14.192 39.2087 14.6726C38.8905 15.1532 38.5028 15.5178 38.0454 15.7663C37.5913 16.0149 37.0776 16.1392 36.5042 16.1392C35.9341 16.1392 35.4253 16.0265 34.9779 15.8011C34.5338 15.5724 34.1692 15.2559 33.8841 14.8516C33.6024 14.4439 33.4218 13.9716 33.3422 13.4347H34.5553C34.6647 13.902 34.8818 14.2881 35.2066 14.593C35.5347 14.8946 35.9672 15.0455 36.5042 15.0455C37.2897 15.0455 37.9095 14.7024 38.3636 14.0163C38.8209 13.3303 39.0496 12.3608 39.0496 11.108H38.9701C38.7845 11.3864 38.5641 11.6267 38.3089 11.8288C38.0537 12.031 37.7703 12.1868 37.4587 12.2962C37.1472 12.4055 36.8157 12.4602 36.4644 12.4602C35.8811 12.4602 35.3458 12.3161 34.8586 12.0277C34.3747 11.736 33.9869 11.3366 33.6952 10.8295C33.4069 10.3191 33.2627 9.7358 33.2627 9.07955C33.2627 8.45644 33.4019 7.88636 33.6803 7.36932C33.962 6.84896 34.3564 6.43466 34.8636 6.12642C35.374 5.81818 35.9739 5.66903 36.6633 5.67898ZM36.6633 6.77273C36.2457 6.77273 35.8695 6.87713 35.5347 7.08594C35.2033 7.29143 34.9398 7.56984 34.7442 7.92116C34.552 8.26918 34.4559 8.6553 34.4559 9.07955C34.4559 9.50379 34.5487 9.88991 34.7343 10.2379C34.9232 10.5826 35.1801 10.8577 35.5049 11.0632C35.833 11.2654 36.2059 11.3665 36.6235 11.3665C36.9384 11.3665 37.2317 11.3052 37.5035 11.1825C37.7752 11.0566 38.0122 10.8859 38.2144 10.6705C38.4199 10.4517 38.5806 10.2048 38.6966 9.92969C38.8127 9.65128 38.8707 9.36127 38.8707 9.05966C38.8707 8.66193 38.7745 8.28906 38.5823 7.94105C38.3934 7.59304 38.1315 7.31132 37.7968 7.09588C37.4654 6.88044 37.0875 6.77273 36.6633 6.77273ZM43.2113 11.4062V16H42.038V5.81818H43.2113V9.55682H43.3107C43.4897 9.16241 43.7582 8.84919 44.1161 8.61719C44.4774 8.38187 44.958 8.2642 45.5579 8.2642C46.0783 8.2642 46.534 8.36861 46.9251 8.57741C47.3162 8.78291 47.6194 9.09943 47.8349 9.52699C48.0536 9.95123 48.163 10.4915 48.163 11.1477V16H46.9897V11.2273C46.9897 10.6207 46.8323 10.1518 46.5174 9.82031C46.2059 9.48556 45.7733 9.31818 45.2198 9.31818C44.8354 9.31818 44.4907 9.39938 44.1857 9.56179C43.8841 9.72419 43.6455 9.96117 43.4698 10.2727C43.2975 10.5843 43.2113 10.9621 43.2113 11.4062ZM57.3874 16.1392C56.7312 16.1392 56.1462 16.0265 55.6325 15.8011C55.1221 15.5758 54.716 15.2625 54.4144 14.8615C54.1161 14.4571 53.9537 13.9882 53.9272 13.4545H55.1801C55.2066 13.7827 55.3193 14.0661 55.5181 14.3047C55.717 14.54 55.9772 14.7223 56.2987 14.8516C56.6202 14.9808 56.9765 15.0455 57.3676 15.0455C57.8051 15.0455 58.1928 14.9692 58.5309 14.8168C58.869 14.6643 59.1341 14.4522 59.3264 14.1804C59.5186 13.9086 59.6147 13.5938 59.6147 13.2358C59.6147 12.8613 59.5219 12.5315 59.3363 12.2464C59.1507 11.9581 58.8789 11.7327 58.521 11.5703C58.163 11.4079 57.7255 11.3267 57.2085 11.3267H56.3931V10.233H57.2085C57.6128 10.233 57.9675 10.16 58.2724 10.0142C58.5806 9.86837 58.8209 9.66288 58.9933 9.39773C59.1689 9.13258 59.2568 8.82102 59.2568 8.46307C59.2568 8.11837 59.1805 7.81842 59.0281 7.56321C58.8756 7.308 58.6602 7.10914 58.3818 6.96662C58.1067 6.8241 57.7819 6.75284 57.4073 6.75284C57.056 6.75284 56.7246 6.81747 56.413 6.94673C56.1048 7.07268 55.8529 7.25663 55.6573 7.49858C55.4618 7.73722 55.3557 8.02557 55.3391 8.36364H54.146C54.1659 7.83002 54.3266 7.36269 54.6282 6.96165C54.9298 6.55729 55.3242 6.24242 55.8114 6.01705C56.302 5.79167 56.8406 5.67898 57.4272 5.67898C58.057 5.67898 58.5972 5.80658 59.048 6.06179C59.4987 6.31368 59.8451 6.64678 60.087 7.06108C60.329 7.47538 60.4499 7.92282 60.4499 8.40341C60.4499 8.9768 60.2991 9.46567 59.9975 9.87003C59.6992 10.2744 59.2932 10.5545 58.7795 10.7102V10.7898C59.4225 10.8958 59.9246 11.1693 60.2859 11.6101C60.6472 12.0476 60.8278 12.5895 60.8278 13.2358C60.8278 13.7893 60.677 14.2865 60.3754 14.7273C60.0771 15.1648 59.6694 15.5095 59.1524 15.7614C58.6353 16.0133 58.047 16.1392 57.3874 16.1392ZM63.0393 16L67.5933 6.99148V6.91193H62.3433V5.81818H68.8661V6.97159L64.332 16H63.0393ZM70.5991 16V8.36364H71.7326V9.55682H71.8321C71.9911 9.14915 72.248 8.83262 72.6026 8.60724C72.9573 8.37855 73.3832 8.2642 73.8803 8.2642C74.3841 8.2642 74.8034 8.37855 75.1382 8.60724C75.4762 8.83262 75.7397 9.14915 75.9286 9.55682H76.0082C76.2037 9.16241 76.4971 8.84919 76.8882 8.61719C77.2793 8.38187 77.7482 8.2642 78.2951 8.2642C78.9779 8.2642 79.5364 8.47798 79.9705 8.90554C80.4047 9.32978 80.6218 9.991 80.6218 10.8892V16H79.4485V10.8892C79.4485 10.3258 79.2944 9.92306 78.9862 9.68111C78.6779 9.43916 78.315 9.31818 77.8974 9.31818C77.3605 9.31818 76.9445 9.48059 76.6495 9.8054C76.3545 10.1269 76.2071 10.5346 76.2071 11.0284V16H75.0139V10.7699C75.0139 10.3357 74.873 9.98603 74.5913 9.72088C74.3096 9.45241 73.9466 9.31818 73.5025 9.31818C73.1976 9.31818 72.9125 9.39938 72.6474 9.56179C72.3856 9.72419 72.1734 9.94957 72.011 10.2379C71.8519 10.523 71.7724 10.8527 71.7724 11.2273V16H70.5991Z" fill="#4E5566"/>
</svg>
