<svg width="100" height="22" viewBox="0 0 100 22" fill="none" xmlns="http://www.w3.org/2000/svg">
<path d="M100 9.98318V8.22452H97.8161V5.49048L97.7425 5.51311L95.6913 6.14073L95.6508 6.15302V8.22462H92.4132V7.07056C92.4132 6.53319 92.5333 6.12197 92.7701 5.84772C93.0053 5.57676 93.3417 5.43901 93.7707 5.43901C94.0791 5.43901 94.3984 5.51166 94.7198 5.65493L94.8003 5.69091V3.8388L94.7624 3.82487C94.4626 3.71711 94.0549 3.66284 93.5495 3.66284C92.9125 3.66284 92.3337 3.80146 91.8289 4.07619C91.3239 4.35131 90.9266 4.74406 90.6483 5.24341C90.3709 5.74218 90.2302 6.31824 90.2302 6.95574V8.22452H88.7095V9.98318H90.2302V17.3921H92.4132V9.98318H95.6508V14.6914C95.6508 16.6305 96.5655 17.6131 98.3693 17.6131C98.6657 17.6131 98.9777 17.5784 99.2962 17.5104C99.6205 17.4406 99.8413 17.3708 99.9713 17.2963L100 17.2793V15.5044L99.9113 15.5631C99.7928 15.642 99.6452 15.7066 99.4723 15.7546C99.2985 15.8034 99.1534 15.8279 99.041 15.8279C98.6185 15.8279 98.3058 15.714 98.1119 15.4893C97.9157 15.2626 97.8162 14.866 97.8162 14.3113V9.98318H100ZM83.8344 15.8282C83.042 15.8282 82.4173 15.5654 81.9771 15.0479C81.5341 14.5277 81.3097 13.7862 81.3097 12.844C81.3097 11.8719 81.5341 11.111 81.9773 10.5817C82.4178 10.0558 83.0365 9.78894 83.8166 9.78894C84.5736 9.78894 85.1761 10.0438 85.6078 10.547C86.0415 11.0527 86.2617 11.8074 86.2617 12.7909C86.2617 13.7864 86.0547 14.5511 85.6465 15.0626C85.241 15.5703 84.6314 15.8282 83.8344 15.8282ZM83.9314 8.00368C82.4197 8.00368 81.2191 8.44663 80.363 9.32025C79.5074 10.194 79.0737 11.4031 79.0737 12.9143C79.0737 14.3497 79.4971 15.5042 80.3323 16.3453C81.1675 17.1867 82.3041 17.6129 83.7104 17.6129C85.1757 17.6129 86.3525 17.1638 87.2082 16.2781C88.0639 15.3933 88.4973 14.1957 88.4973 12.7197C88.4973 11.2619 88.0906 10.0988 87.288 9.26328C86.485 8.42738 85.3555 8.00368 83.9314 8.00368ZM75.5539 8.00368C74.5256 8.00368 73.675 8.2667 73.0253 8.7853C72.3715 9.307 72.0399 9.99121 72.0399 10.8192C72.0399 11.2496 72.1115 11.6319 72.2524 11.9561C72.3941 12.2814 72.6134 12.5679 72.9047 12.8083C73.1939 13.0467 73.6402 13.2965 74.2317 13.5506C74.7289 13.7552 75.0997 13.9283 75.3352 14.0647C75.5655 14.1984 75.7288 14.3327 75.8211 14.4636C75.9108 14.5917 75.9563 14.767 75.9563 14.9833C75.9563 15.5992 75.495 15.8989 74.546 15.8989C74.1939 15.8989 73.7924 15.8254 73.3525 15.6805C72.9158 15.5377 72.5036 15.3287 72.1304 15.0608L72.0397 14.9958V17.0975L72.073 17.113C72.3819 17.2556 72.7713 17.3758 73.2304 17.4705C73.6885 17.5652 74.1048 17.6133 74.4664 17.6133C75.5822 17.6133 76.4808 17.3491 77.1364 16.8274C77.7963 16.3021 78.1307 15.6017 78.1307 14.7451C78.1307 14.1272 77.9507 13.5972 77.5958 13.1699C77.2434 12.746 76.6318 12.3568 75.7787 12.0128C75.099 11.74 74.6636 11.5135 74.4839 11.3397C74.3108 11.1718 74.2229 10.9343 74.2229 10.6335C74.2229 10.3669 74.3314 10.1533 74.5542 9.98038C74.7787 9.80654 75.0913 9.71813 75.4832 9.71813C75.847 9.71813 76.2191 9.77559 76.5892 9.88819C76.959 10.0008 77.2839 10.1516 77.555 10.3361L77.6442 10.397V8.40329L77.61 8.38859C77.3598 8.28131 77.0299 8.18951 76.6293 8.11502C76.2304 8.04102 75.8686 8.00368 75.5539 8.00368ZM66.3489 15.8282C65.5567 15.8282 64.9318 15.5654 64.4917 15.0479C64.0486 14.5277 63.8246 13.7864 63.8246 12.844C63.8246 11.8719 64.0489 11.111 64.4921 10.5817C64.9323 10.0558 65.5509 9.78894 66.3314 9.78894C67.088 9.78894 67.6906 10.0438 68.1223 10.547C68.5562 11.0527 68.7763 11.8074 68.7763 12.7909C68.7763 13.7864 68.5692 14.5511 68.1609 15.0626C67.7555 15.5703 67.1462 15.8282 66.3489 15.8282ZM66.4462 8.00368C64.9341 8.00368 63.7333 8.44663 62.8777 9.32025C62.0222 10.194 61.5881 11.4031 61.5881 12.9143C61.5881 14.3502 62.0118 15.5042 62.8471 16.3453C63.6823 17.1867 64.8188 17.6129 66.2251 17.6129C67.6902 17.6129 68.8673 17.1638 69.723 16.2781C70.5784 15.3933 71.0121 14.1957 71.0121 12.7197C71.0121 11.2619 70.6052 10.0988 69.8024 9.26328C68.9992 8.42738 67.87 8.00368 66.4462 8.00368ZM58.2744 9.81216V8.22452H56.1179V17.3919H58.2744V12.7024C58.2744 11.905 58.4552 11.2499 58.8119 10.7551C59.1641 10.2662 59.6335 10.0185 60.2066 10.0185C60.4008 10.0185 60.6189 10.0505 60.855 10.1139C61.0887 10.1769 61.258 10.2452 61.3578 10.3172L61.4485 10.3829V8.20885L61.4135 8.19386C61.2127 8.10854 60.9286 8.06549 60.5691 8.06549C60.0272 8.06549 59.5423 8.23962 59.1269 8.58245C58.7623 8.88378 58.4988 9.29694 58.2973 9.81216H58.2744ZM52.2562 8.00368C51.2669 8.00368 50.3844 8.21582 49.6339 8.63401C48.8817 9.05316 48.3001 9.65157 47.9043 10.4125C47.5103 11.1716 47.3103 12.0583 47.3103 13.0471C47.3103 13.9133 47.5042 14.7082 47.8876 15.4087C48.2712 16.1104 48.814 16.6594 49.5012 17.0402C50.1875 17.4204 50.9806 17.6132 51.8588 17.6132C52.8836 17.6132 53.7586 17.4083 54.4601 17.0043L54.4884 16.988V15.0124L54.3978 15.0786C54.08 15.3101 53.7249 15.4948 53.3428 15.6279C52.9617 15.7609 52.6142 15.8282 52.3095 15.8282C51.4633 15.8282 50.784 15.5634 50.291 15.0414C49.7969 14.5187 49.5463 13.7848 49.5463 12.8613C49.5463 11.9319 49.8076 11.1791 50.3225 10.6237C50.8359 10.0699 51.5164 9.78894 52.3451 9.78894C53.0538 9.78894 53.7445 10.0289 54.398 10.5029L54.4884 10.5686V8.48697L54.4592 8.47052C54.2133 8.33287 53.8779 8.2192 53.4616 8.13301C53.047 8.04701 52.6415 8.00368 52.2562 8.00368ZM45.8251 8.22462H43.6687V17.3919H45.8251V8.22462ZM44.7689 4.31929C44.414 4.31929 44.1045 4.44012 43.8501 4.67954C43.5948 4.91964 43.4652 5.22194 43.4652 5.5787C43.4652 5.92985 43.5932 6.22664 43.8462 6.46035C44.0975 6.69339 44.408 6.8115 44.769 6.8115C45.13 6.8115 45.4416 6.69339 45.696 6.46074C45.9519 6.22664 46.0817 5.92995 46.0817 5.5787C46.0817 5.23441 45.9554 4.93521 45.7065 4.68921C45.4578 4.44369 45.1422 4.31929 44.7689 4.31929ZM39.3885 7.54824V17.3919H41.5892V4.59992H38.5433L34.6718 14.1014L30.9147 4.59992H27.7448V17.3918H29.8129V7.54728H29.8839L33.8513 17.3919H35.412L39.3175 7.54824H39.3885Z" fill="#706D6E"/>
<path d="M10.1445 10.4699H0V0.325439H10.1445V10.4699Z" fill="#F1511B"/>
<path d="M21.3451 10.4699H11.2008V0.325439H21.3451V10.4699Z" fill="#80CC28"/>
<path d="M10.1442 21.6744H0V11.53H10.1442V21.6744Z" fill="#00ADEF"/>
<path d="M21.3451 21.6744H11.2008V11.53H21.3451V21.6744Z" fill="#FBBC09"/>
</svg>
