<svg width="100" height="34" viewBox="0 0 100 34" fill="none" xmlns="http://www.w3.org/2000/svg">
<path d="M12.3154 0.682861H13.2047C16.2919 0.749976 19.3289 1.99159 21.5101 4.18958C20.7047 5.01173 19.8826 5.80032 19.094 6.62247C17.8691 5.51509 16.3926 4.65938 14.7819 4.35737C12.3993 3.85401 9.83222 4.30703 7.83557 5.6661C5.65436 7.09227 4.17785 9.50839 3.85906 12.0923C3.50671 14.6426 4.22819 17.3272 5.88926 19.3071C7.48322 21.2366 9.91611 22.4447 12.4329 22.5286C14.7819 22.6628 17.2315 21.9413 18.943 20.297C20.2852 19.1393 20.906 17.3775 21.1074 15.6661C18.3221 15.6661 15.5369 15.6829 12.7517 15.6661V12.2097H24.4799C25.0839 15.9178 24.2114 20.0957 21.3926 22.7467C19.5134 24.6259 16.9128 25.7333 14.2617 25.9514C11.6946 26.2031 9.04362 25.7165 6.76174 24.4749C4.02685 23.0151 1.84564 20.5487 0.771812 17.646C-0.234899 14.9782 -0.251678 11.9581 0.687919 9.27349C1.54362 6.82382 3.18792 4.65938 5.30201 3.14931C7.33222 1.65602 9.79866 0.833868 12.3154 0.682861Z" fill="#3780FF"/>
<path d="M79.5973 1.5553H83.1879V25.515C81.9966 25.515 80.7886 25.5318 79.5973 25.4982C79.6141 17.5284 79.5973 9.54187 79.5973 1.5553Z" fill="#38B137"/>
<path d="M32.4664 9.86075C34.6812 9.44129 37.0805 9.91109 38.9094 11.2366C40.5705 12.4111 41.7282 14.2567 42.0805 16.2702C42.5336 18.6024 41.9631 21.1527 40.453 22.9983C38.8255 25.0621 36.1577 26.1695 33.557 26.0017C31.1745 25.8675 28.859 24.6762 27.4496 22.7299C25.8557 20.5822 25.4698 17.6292 26.3423 15.1124C27.2147 12.4111 29.6812 10.3473 32.4664 9.86075ZM32.9698 13.0487C32.0637 13.2836 31.2248 13.8037 30.6208 14.542C28.9933 16.4883 29.0939 19.6594 30.8892 21.4715C31.9127 22.5118 33.4564 22.9983 34.8825 22.7131C36.208 22.4782 37.3658 21.589 38.0033 20.4145C39.1107 18.4178 38.7919 15.6661 37.0973 14.1057C36.0067 13.099 34.4127 12.6795 32.9698 13.0487Z" fill="#FA3913"/>
<path d="M50.2516 9.86077C52.7852 9.37419 55.5536 10.0789 57.4496 11.8574C60.5369 14.6259 60.8724 19.8104 58.2382 22.9983C56.6442 25.0118 54.0604 26.1191 51.51 26.0017C49.0771 25.9346 46.6778 24.7265 45.2349 22.7299C43.6073 20.5319 43.255 17.5118 44.1778 14.9447C45.1006 12.3272 47.5167 10.3306 50.2516 9.86077ZM50.755 13.0487C49.8489 13.2836 49.01 13.8037 48.406 14.5252C46.7953 16.4379 46.8624 19.5587 48.5906 21.3876C49.6141 22.4782 51.208 23.0151 52.6845 22.7131C53.9932 22.4614 55.1677 21.5889 55.8053 20.4144C56.8959 18.401 56.5771 15.6493 54.8657 14.0889C53.7751 13.0822 52.1812 12.6796 50.755 13.0487Z" fill="#FCBD06"/>
<path d="M65.3355 10.8337C67.2651 9.62566 69.8322 9.29009 71.9127 10.3304C72.5671 10.6156 73.104 11.1022 73.6241 11.5887C73.6409 11.1357 73.6241 10.6659 73.6409 10.1961C74.7651 10.2129 75.8892 10.1961 77.0302 10.2129V25.0115C77.0134 27.2431 76.4429 29.6088 74.8322 31.2364C73.0705 33.0317 70.3691 33.5854 67.9362 33.2162C65.3355 32.8303 63.0704 30.9344 62.0637 28.535C63.0704 28.0484 64.1275 27.6625 65.1678 27.2095C65.755 28.5854 66.9463 29.7599 68.4396 30.0283C69.9329 30.2968 71.6611 29.9276 72.6342 28.686C73.6745 27.4109 73.6745 25.6659 73.6241 24.1055C72.8523 24.8605 71.9631 25.5317 70.8892 25.7834C68.557 26.4377 65.9899 25.6323 64.1946 24.0552C62.3825 22.478 61.3087 20.0451 61.4094 17.629C61.4597 14.8941 63.0033 12.2599 65.3355 10.8337ZM68.8087 12.9814C67.7852 13.1491 66.8288 13.7196 66.1745 14.5082C64.5973 16.3874 64.5973 19.3907 66.1913 21.2364C67.0973 22.327 68.557 22.931 69.9664 22.78C71.2919 22.6458 72.5168 21.8068 73.1711 20.6491C74.2785 18.686 74.0939 16.0183 72.6007 14.3069C71.6778 13.2498 70.2013 12.7297 68.8087 12.9814Z" fill="#3780FF"/>
<path d="M87.5 11.6895C89.5134 9.81032 92.6175 9.17273 95.2014 10.1627C97.651 11.0855 99.2114 13.4177 100 15.817C96.3591 17.3271 92.7349 18.8204 89.094 20.3305C89.5973 21.2868 90.3691 22.1593 91.4094 22.5117C92.8691 23.0318 94.6141 22.8472 95.8389 21.8741C96.3255 21.505 96.7114 21.0184 97.0806 20.5486C98.0034 21.1694 98.9262 21.7734 99.849 22.3942C98.5403 24.3573 96.3423 25.7331 93.9765 25.9513C91.3591 26.2701 88.5738 25.2633 86.8792 23.2164C84.0939 19.9949 84.3624 14.5922 87.5 11.6895ZM89.2953 14.7935C88.7248 15.6157 88.4899 16.6224 88.5067 17.6123C90.9396 16.6056 93.3725 15.5989 95.8054 14.5754C95.4027 13.6358 94.4295 13.0654 93.4396 12.9143C91.8456 12.6291 90.1846 13.4848 89.2953 14.7935Z" fill="#FA3913"/>
</svg>
