<svg width="100" height="26" viewBox="0 0 100 26" fill="none" xmlns="http://www.w3.org/2000/svg">
<path fill-rule="evenodd" clip-rule="evenodd" d="M31.9919 20.284L33.2399 17.384C34.5879 18.392 36.3839 18.916 38.1559 18.916C39.4639 18.916 40.2919 18.412 40.2919 17.648C40.2719 15.512 32.4559 17.184 32.3959 11.828C32.3759 9.10801 34.7919 7.01201 38.2159 7.01201C40.2519 7.01201 42.2839 7.51601 43.7359 8.66401L42.5679 11.624C41.2399 10.776 39.5879 10.172 38.0159 10.172C36.9479 10.172 36.2439 10.676 36.2439 11.32C36.2639 13.416 44.1399 12.268 44.2199 17.384C44.2199 20.164 41.8639 22.12 38.4799 22.12C35.9999 22.116 33.7239 21.532 31.9919 20.284ZM79.9159 16.336C79.2919 17.424 78.1239 18.168 76.7719 18.168C74.7759 18.168 73.1679 16.556 73.1679 14.564C73.1679 12.572 74.7799 10.96 76.7719 10.96C78.1199 10.96 79.2919 11.704 79.9159 12.792L83.3599 10.88C82.0719 8.58401 79.5919 7.01201 76.7719 7.01201C72.5999 7.01201 69.2159 10.396 69.2159 14.568C69.2159 18.74 72.5999 22.124 76.7719 22.124C79.6119 22.124 82.0719 20.572 83.3599 18.256L79.9159 16.336ZM45.9519 0.744019H50.2639V21.836H45.9519V0.744019ZM85.0519 0.744019V21.836H89.3639V15.508L94.4799 21.836H99.9999L93.4919 14.32L99.5159 7.30801H94.2359L89.3599 13.128V0.744019H85.0519Z" fill="black"/>
<path d="M63.076 16.376C62.452 17.404 61.164 18.168 59.712 18.168C57.716 18.168 56.108 16.556 56.108 14.564C56.108 12.572 57.72 10.9601 59.712 10.9601C61.164 10.9601 62.452 11.764 63.076 12.812V16.376ZM63.076 7.31206V9.02405C62.372 7.83606 60.62 7.00806 58.784 7.00806C54.996 7.00806 52.016 10.3521 52.016 14.544C52.016 18.736 54.996 22.12 58.784 22.12C60.616 22.12 62.368 21.296 63.076 20.104V21.816H67.388V7.31206H63.076Z" fill="black"/>
<path fill-rule="evenodd" clip-rule="evenodd" d="M5.34 16.3561C5.34 17.8281 4.152 19.0161 2.68 19.0161C1.208 19.0161 0.0200043 17.8241 0.0200043 16.3561C0.0200043 14.888 1.208 13.696 2.68 13.696H5.34V16.3561ZM6.668 16.3561C6.668 14.884 7.856 13.696 9.328 13.696C10.8 13.696 11.988 14.884 11.988 16.3561V23.0041C11.988 24.4761 10.8 25.6641 9.328 25.6641C7.856 25.6641 6.668 24.4761 6.668 23.0041V16.3561Z" fill="#E01E5A"/>
<path fill-rule="evenodd" clip-rule="evenodd" d="M9.328 5.68012C7.856 5.68012 6.668 4.49212 6.668 3.02011C6.668 1.54811 7.856 0.360107 9.328 0.360107C10.8 0.360107 11.988 1.54811 11.988 3.02011V5.68012H9.328ZM9.328 7.02813C10.8 7.02813 11.988 8.21613 11.988 9.68813C11.988 11.1601 10.8 12.3481 9.328 12.3481H2.66C1.188 12.3481 0 11.1561 0 9.68813C0 8.22013 1.188 7.02813 2.66 7.02813H9.328Z" fill="#36C5F0"/>
<path fill-rule="evenodd" clip-rule="evenodd" d="M19.984 9.68813C19.984 8.21613 21.172 7.02813 22.644 7.02813C24.116 7.02813 25.304 8.21613 25.304 9.68813C25.304 11.1601 24.116 12.3481 22.644 12.3481H19.984V9.68813ZM18.656 9.68813C18.656 11.1601 17.468 12.3481 15.996 12.3481C14.524 12.3481 13.336 11.1601 13.336 9.68813V3.02011C13.336 1.54811 14.524 0.360107 15.996 0.360107C17.468 0.360107 18.656 1.54811 18.656 3.02011V9.68813Z" fill="#2EB67D"/>
<path fill-rule="evenodd" clip-rule="evenodd" d="M15.996 20.3441C17.468 20.3441 18.656 21.5321 18.656 23.0041C18.656 24.4761 17.468 25.6641 15.996 25.6641C14.524 25.6641 13.336 24.4761 13.336 23.0041V20.3441H15.996ZM15.996 19.0161C14.524 19.0161 13.336 17.8281 13.336 16.3561C13.336 14.884 14.524 13.696 15.996 13.696H22.664C24.136 13.696 25.324 14.884 25.324 16.3561C25.324 17.8281 24.136 19.0161 22.664 19.0161H15.996Z" fill="#ECB22E"/>
</svg>
