<svg width="100" height="24" viewBox="0 0 100 24" fill="none" xmlns="http://www.w3.org/2000/svg">
<path fill-rule="evenodd" clip-rule="evenodd" d="M28.4069 1.50272C29.7818 1.87309 30.8625 2.95367 31.2278 4.32359C31.8925 6.80962 31.8925 12 31.8925 12C31.8925 12 31.8925 17.1902 31.2278 19.6762C30.8574 21.0511 29.7769 22.1318 28.4069 22.4971C25.9209 23.1618 15.9463 23.1618 15.9463 23.1618C15.9463 23.1618 5.97672 23.1618 3.48558 22.4971C2.11067 22.1267 1.02997 21.0461 0.664706 19.6762C0 17.1902 0 11.9998 0 11.9998C0 11.9998 0 6.80962 0.664706 4.32359C1.03508 2.94868 2.11578 1.86798 3.48558 1.50272C5.97672 0.838013 15.9463 0.838013 15.9463 0.838013C15.9463 0.838013 25.9209 0.838013 28.4069 1.50272ZM21.0452 11.9999L12.7601 16.7843V7.21558L21.0452 11.9999Z" fill="#FF0000"/>
<path fill-rule="evenodd" clip-rule="evenodd" d="M46.2914 21.1472C45.6622 20.7211 45.2107 20.0615 44.9469 19.1636C44.683 18.2655 44.546 17.0732 44.546 15.5815V13.5521C44.546 12.0453 44.6982 10.8379 45.0026 9.92445C45.307 9.0113 45.784 8.34673 46.4282 7.9306C47.0726 7.5146 47.92 7.30156 48.9701 7.30156C50.0052 7.30156 50.8322 7.5146 51.4561 7.94083C52.0802 8.36692 52.5368 9.03162 52.8261 9.93468C53.1153 10.8379 53.2574 12.0453 53.2574 13.547V15.5765C53.2574 17.0681 53.1153 18.2655 52.8362 19.1686C52.5572 20.0716 52.1007 20.7363 51.4664 21.1523C50.8372 21.5683 49.9798 21.7816 48.8991 21.7816C47.7931 21.7865 46.9204 21.5734 46.2914 21.1472ZM49.8275 18.9555C50.0001 18.4989 50.0915 17.753 50.0915 16.7232V12.365C50.0915 11.3603 50.0052 10.6298 49.8275 10.1631C49.6551 9.70131 49.3456 9.46794 48.9042 9.46794C48.4781 9.46794 48.1786 9.70131 48.0011 10.1631C47.8286 10.6247 47.7373 11.3603 47.7373 12.365V16.7232C47.7373 17.7581 47.8185 18.504 47.9859 18.9555C48.1533 19.4122 48.4578 19.6404 48.8992 19.6404C49.3456 19.6404 49.65 19.4122 49.8275 18.9555ZM94.7286 15.6171V16.3224C94.7286 17.2203 94.7541 17.89 94.8099 18.3416C94.8605 18.7881 94.9722 19.1178 95.1396 19.3209C95.3071 19.5237 95.5657 19.6303 95.9158 19.6303C96.3878 19.6303 96.7124 19.4477 96.8849 19.0823C97.0575 18.717 97.1537 18.1082 97.169 17.2559L99.8833 17.4132C99.8986 17.5349 99.9036 17.7023 99.9036 17.9153C99.9036 19.2092 99.5485 20.1731 98.8432 20.8124C98.138 21.4516 97.1386 21.7713 95.8449 21.7713C94.2923 21.7713 93.2066 21.2842 92.5826 20.3101C91.9585 19.336 91.6491 17.8342 91.6491 15.7947V13.3543C91.6491 11.2539 91.9737 9.72661 92.618 8.75774C93.2623 7.79373 94.3683 7.31165 95.9362 7.31165C97.0168 7.31165 97.8438 7.50962 98.4221 7.9053C99.0006 8.30097 99.4065 8.91481 99.645 9.75205C99.8783 10.5892 100 11.746 100 13.2173V15.6121H94.7286V15.6171ZM95.1294 9.73173C94.9721 9.9297 94.8656 10.2543 94.8098 10.7009C94.7539 11.1473 94.7286 11.8323 94.7286 12.7403V13.745H97.032V12.7403C97.032 11.8423 97.0016 11.1625 96.9406 10.7009C96.8798 10.2391 96.7682 9.90938 96.6109 9.72163C96.4536 9.53389 96.205 9.43753 95.8702 9.43753C95.5353 9.43241 95.2867 9.53389 95.1294 9.73173ZM38.6302 15.3533L35.0484 2.42076H38.1736L39.4268 8.28078C39.7464 9.72675 39.9798 10.9545 40.132 11.9743H40.2233C40.3299 11.2436 40.5632 10.0209 40.9286 8.30097L42.2274 2.41565H45.3527L41.7302 15.3533V21.5582H38.6302V15.3533ZM63.4197 7.57557V21.5531H60.9589L60.6849 19.8434H60.619C59.9493 21.1371 58.9448 21.7815 57.6104 21.7815C56.682 21.7815 55.997 21.4771 55.5557 20.8682C55.1143 20.2594 54.8961 19.3107 54.8961 18.0169V7.57557H58.0417V17.8393C58.0417 18.4633 58.1077 18.9099 58.2447 19.1737C58.3817 19.4375 58.6099 19.5745 58.9296 19.5745C59.2036 19.5745 59.4674 19.4932 59.7159 19.3259C59.9645 19.1585 60.1523 18.9453 60.2741 18.6866V7.57544L63.4197 7.57557ZM79.5638 7.57557V21.5531H77.103L76.829 19.8434H76.7631C76.0934 21.1371 75.0889 21.7815 73.7545 21.7815C72.8261 21.7815 72.1411 21.4771 71.6998 20.8682C71.2583 20.2594 71.0402 19.3107 71.0402 18.0169V7.57557H74.1858V17.8393C74.1858 18.4633 74.2518 18.9099 74.3888 19.1737C74.5256 19.4375 74.754 19.5745 75.0737 19.5745C75.3477 19.5745 75.6114 19.4932 75.86 19.3259C76.1086 19.1585 76.2963 18.9453 76.4181 18.6866V7.57544L79.5638 7.57557Z" fill="#282828"/>
<path fill-rule="evenodd" clip-rule="evenodd" d="M71.9738 4.95269H68.8485V21.5533H65.7688V4.95269H62.6435V2.42105H71.9686V4.95269H71.9738ZM89.9798 9.81304C89.7871 8.93031 89.4826 8.29103 89.0564 7.89536C88.6303 7.49955 88.0469 7.30171 87.3009 7.30171C86.7227 7.30171 86.1848 7.46402 85.6825 7.79388C85.1803 8.1185 84.7947 8.54984 84.5207 9.08252H84.4954V1.7157H81.4613V21.5584H84.0589L84.3786 20.2342H84.4447C84.6881 20.7061 85.0534 21.0764 85.5404 21.3503C86.0275 21.6243 86.5654 21.7613 87.1589 21.7613C88.2244 21.7613 89.0057 21.2692 89.5081 20.2899C90.0102 19.3108 90.2589 17.7786 90.2589 15.6934V13.4812C90.264 11.9186 90.1675 10.6959 89.9798 9.81317V9.81304ZM87.093 15.5157C87.093 16.5356 87.0523 17.3321 86.9662 17.9105C86.8849 18.4889 86.7429 18.8998 86.5451 19.1434C86.3471 19.3869 86.0833 19.5087 85.7485 19.5087C85.4897 19.5087 85.2513 19.4479 85.0281 19.3261C84.8099 19.2043 84.6273 19.0216 84.4903 18.778V10.838C84.5969 10.4574 84.7795 10.148 85.0383 9.90455C85.297 9.66096 85.576 9.53916 85.8804 9.53916C86.2 9.53916 86.4486 9.66594 86.6211 9.91451C86.7937 10.1632 86.9155 10.5893 86.9864 11.1778C87.0525 11.7715 87.0879 12.6137 87.0879 13.7095V15.5157H87.093Z" fill="#282828"/>
</svg>
