<svg width="20" height="20" viewBox="0 0 20 20" fill="none" xmlns="http://www.w3.org/2000/svg">
<path d="M2.66184 10.996C1.96297 9.81785 1.71822 8.42512 1.97355 7.07931C2.22888 5.7335 2.96672 4.52719 4.04852 3.6869C5.13033 2.8466 6.48168 2.43013 7.84882 2.51568C9.21596 2.60124 10.5048 3.18293 11.4735 4.15153C12.4421 5.12013 13.0238 6.40902 13.1093 7.77616C13.1949 9.1433 12.7784 10.4946 11.9381 11.5765C11.0978 12.6583 9.89152 13.3961 8.54572 13.6514C7.19991 13.9068 5.80718 13.662 4.62905 12.9632L4.62907 12.9631L2.6863 13.5182C2.60592 13.5412 2.52086 13.5422 2.43994 13.5212C2.35902 13.5003 2.28518 13.458 2.22607 13.3989C2.16696 13.3398 2.12473 13.266 2.10376 13.1851C2.08279 13.1041 2.08384 13.0191 2.10681 12.9387L2.66189 10.9959L2.66184 10.996Z" stroke="#8C94A3" stroke-width="1.3" stroke-linecap="round" stroke-linejoin="round"/>
<path d="M7.19238 13.7416C7.4689 14.5266 7.91607 15.2405 8.50169 15.8319C9.0873 16.4233 9.79679 16.8774 10.579 17.1616C11.3613 17.4458 12.1968 17.553 13.0255 17.4755C13.8541 17.3979 14.6553 17.1376 15.3712 16.7132L15.3712 16.7131L17.314 17.2682C17.3944 17.2911 17.4794 17.2922 17.5603 17.2712C17.6413 17.2503 17.7151 17.208 17.7742 17.1489C17.8333 17.0898 17.8756 17.016 17.8965 16.935C17.9175 16.8541 17.9164 16.7691 17.8935 16.6887L17.3384 14.7459L17.3384 14.746C17.8316 13.9142 18.1021 12.9694 18.1238 12.0026C18.1456 11.0359 17.9178 10.0798 17.4624 9.22678C17.0071 8.37371 16.3396 7.6524 15.5243 7.13242C14.709 6.61245 13.7734 6.31137 12.8079 6.25824" stroke="#8C94A3" stroke-width="1.3" stroke-linecap="round" stroke-linejoin="round"/>
</svg>
